<svg width="158" height="177" viewBox="0 0 158 177" fill="none" xmlns="http://www.w3.org/2000/svg">
<g clip-path="url(#clip0_5_2)">
<path d="M69.8589 28.8492L20.5131 1.08124C18.1016 -0.285377 15.1625 -0.360466 12.6907 0.870995L12.4345 0.991138C12.329 1.05121 12.2084 1.11128 12.1029 1.17135L6.64686 4.02474C3.75303 5.33129 1.89917 8.19969 1.89917 11.3685V133.794C1.91424 139.591 5.03415 144.937 10.0983 147.82L59.414 175.874C61.6597 177.18 64.4029 177.36 66.8144 176.354C67.2213 176.174 67.6283 175.979 68.0051 175.738L73.6721 172.795C76.4152 171.428 78.1485 168.65 78.1636 165.601V42.9509C78.1636 37.109 74.9985 31.7176 69.874 28.8492H69.8589Z" fill="#0040E5"/>
<path d="M68.9998 30.306L19.669 2.53802C18.6894 1.98236 17.574 1.68201 16.4286 1.68201C15.4037 1.68201 14.3788 1.92229 13.4594 2.37283L12.2988 3.01859C13.2785 3.16877 14.213 3.49916 15.0721 3.97973L66.9349 33.2344C70.4165 35.1717 72.5718 38.8211 72.5869 42.8008L72.7979 168.515C72.7979 169.656 72.5266 170.798 72.0443 171.834L72.8733 171.308C75.0587 170.242 76.4303 168.034 76.4454 165.617V42.951C76.4454 37.7098 73.5967 32.874 69.0148 30.306H68.9998Z" fill="#5545D5"/>
<path d="M7.26465 134.214V14.297C7.29479 12.4799 8.78692 11.0232 10.6106 11.0532C11.1834 11.0532 11.726 11.2184 12.2233 11.5037L60.7251 39.1365C63.1969 40.5332 64.7343 43.1463 64.7343 45.9696V166.322C64.7041 168.14 63.212 169.596 61.3883 169.566C60.8155 169.566 60.2579 169.401 59.7605 169.116L11.2286 141.017C8.78692 139.621 7.26465 137.023 7.26465 134.214Z" fill="#F9FAFD"/>
<path d="M19.3524 103.112L23.1355 100.965L19.3524 98.8173L15.5693 100.965L19.3524 103.097V103.112Z" fill="#3B319C"/>
<path d="M15.5693 100.98V125.865L19.3524 128.012V103.128L15.5693 100.98Z" fill="#5545D5"/>
<path d="M19.3523 103.112V127.997L23.1354 125.849V100.965L19.3523 103.112Z" fill="#271B59"/>
<path d="M26.1349 110.606L29.918 108.474L26.1349 106.326L22.3518 108.474L26.1349 110.606Z" fill="#EBB0EF"/>
<path d="M22.3518 108.459V129.694L26.1349 131.841V110.606L22.3518 108.459Z" fill="#E06FE4"/>
<path d="M26.1348 110.606V131.841L29.9178 129.694V108.459L26.1348 110.606Z" fill="#DB34BD"/>
<path d="M44.6885 71.65C44.794 69.938 43.9198 68.301 42.4126 67.445C41.9605 67.0996 41.3727 66.9794 40.8301 67.1597C40.815 67.1597 40.7849 67.1747 40.7698 67.1897L38.8406 68.271L41.1918 69.5625C41.3576 70.809 41.4782 71.8753 42.5784 72.6562L42.1112 74.5935L43.9952 73.5272C44.4775 73.2869 44.6885 72.6111 44.6885 71.635V71.65Z" fill="#3B319C"/>
<path d="M49.9788 77.4319L43.7541 60.5669L41.9153 61.5881L48.14 78.4531L49.9788 77.4319Z" fill="#271B59"/>
<path d="M48.1399 78.4531L41.9152 61.5881L40.3025 60.672L46.4971 77.507L48.1399 78.4381V78.4531Z" fill="#5545D5"/>
<path d="M43.754 60.5668L41.9152 61.5881L40.3025 60.672L42.1413 59.6508L43.754 60.5668Z" fill="#3B319C"/>
<path d="M53.2645 68.0307C53.37 66.3187 52.4958 64.6818 50.9886 63.8257C50.5364 63.4803 49.9486 63.3602 49.406 63.5404C49.3909 63.5404 49.3608 63.5554 49.3457 63.5704L47.4165 64.6517L49.7677 65.9432C49.9335 67.1897 50.0541 68.256 51.1544 69.0369L50.6871 70.9892L52.5711 69.923C53.0534 69.6827 53.2645 69.0069 53.2645 68.0307Z" fill="#3B319C"/>
<path d="M40.4533 68.5414C41.9454 69.3974 42.8346 71.0343 42.7291 72.7463C42.7291 74.4734 42.066 75.2693 40.4533 74.3532C38.9611 73.4972 38.0719 71.8753 38.1623 70.1633C38.1623 68.4062 38.8405 67.6253 40.4533 68.5414ZM39.7147 71.2896C39.6243 71.9955 39.9107 72.6863 40.4533 73.1218C40.9958 73.4372 41.1918 72.9416 41.1918 72.1306V71.62C41.2973 70.9292 41.0109 70.2234 40.4533 69.7878C39.9257 69.4875 39.7147 69.9681 39.7147 70.779V71.3046V71.2896Z" fill="#5545D5"/>
<path d="M40.4531 69.7729C41.0108 70.2084 41.2821 70.8992 41.1917 71.6051V72.1307C41.1917 72.9416 41.0108 73.4372 40.4531 73.1219C39.8955 72.6863 39.6242 71.9805 39.7146 71.2897V70.7641C39.7146 69.9531 39.9256 69.4725 40.4531 69.7729Z" fill="#271B59"/>
<path d="M49.0292 64.9371C50.5213 65.7931 51.4106 67.4301 51.3051 69.1421C51.3051 70.8691 50.6419 71.6651 49.0292 70.749C47.537 69.893 46.6478 68.2861 46.7382 66.574C46.7382 64.817 47.4014 64.036 49.0292 64.9521V64.9371ZM48.2907 67.6703C48.2002 68.3762 48.4866 69.067 49.0292 69.5025C49.5718 69.8179 49.7677 69.3223 49.7677 68.5113V67.9857C49.8732 67.2949 49.5868 66.5891 49.0292 66.1535C48.5017 65.8532 48.2907 66.3338 48.2907 67.1447V67.6703Z" fill="#5545D5"/>
<path d="M49.0293 66.1685C49.587 66.604 49.8583 67.2948 49.7678 68.0007V68.5263C49.7678 69.3373 49.587 69.8329 49.0293 69.5175C48.4716 69.082 48.2004 68.3761 48.2908 67.6853V67.1597C48.2908 66.3487 48.5018 65.8682 49.0293 66.1685Z" fill="#271B59"/>
<path d="M42.3674 122.44C40.8451 121.479 39.3228 120.518 37.8006 119.557C36.7907 122.771 37.9061 126.405 39.564 129.228L42.8648 127.381C42.8648 127.381 42.4578 126.585 42.3975 126.465C42.277 126.165 42.1715 125.864 42.0961 125.549C41.7645 124.528 41.87 123.401 42.3674 122.455V122.44Z" fill="#A7F5E3"/>
<path d="M54.8018 128.042C54.5757 125.849 53.8673 123.747 52.7218 121.855C52.345 121.224 51.9381 120.608 51.4859 120.022C50.0692 118.1 48.1249 116.613 45.8942 115.742C44.4473 115.142 42.8044 115.187 41.3877 115.847L40.0161 116.598C43.3018 114.751 46.3011 118.611 49.3156 123.732C50.5515 125.759 51.2749 128.042 51.4407 130.4C51.5161 131.992 51.3653 133.584 50.9735 135.13C50.9735 135.13 52.134 134.53 52.2546 134.455C54.214 133.358 55.0731 130.91 54.8168 128.027L54.8018 128.042Z" fill="#A6B5EA"/>
<path d="M53.5659 129.198C53.4001 126.841 52.6766 124.558 51.4407 122.53L49.5266 123.612L48.1399 124.393C49.4814 126.66 49.3909 129.183 47.9289 129.994C46.2861 130.91 44.0404 129.364 42.8647 127.351L39.564 129.198C41.2972 132.157 44.0856 134.68 46.8287 135.491C48.2002 135.941 49.6924 135.821 50.9735 135.145C52.8123 134.109 53.7015 131.871 53.5659 129.183V129.198Z" fill="#DB34BD"/>
<path d="M40.0463 116.598C39.4434 116.944 38.9309 117.424 38.5391 117.98L38.5089 118.025C38.2678 118.4 38.0718 118.791 37.906 119.211C37.8759 119.271 37.8156 119.497 37.8005 119.542L42.3674 122.425C42.5482 122.14 42.7894 121.915 43.0757 121.749C44.5377 120.923 46.7985 122.11 48.1399 124.378L49.5266 123.597L51.4407 122.515C48.4263 117.394 43.3169 114.736 40.0312 116.583L40.0463 116.598Z" fill="#5545D5"/>
<path d="M44.0555 126.78C44.0555 126.78 43.6485 125.984 43.6033 125.864C43.4827 125.564 43.3772 125.264 43.3019 124.948C42.9703 123.927 43.0758 122.816 43.5732 121.855C43.6485 121.734 43.7389 121.629 43.8294 121.524C43.2265 121.584 42.699 121.915 42.3825 122.44C41.87 123.386 41.7796 124.498 42.1112 125.534C42.1865 125.849 42.292 126.15 42.4126 126.45C42.4729 126.57 42.8798 127.366 42.8798 127.366C44.0555 129.363 46.3012 130.925 47.944 130.009C48.1098 129.919 48.2455 129.799 48.3811 129.679C46.8589 129.889 45.0804 128.507 44.0705 126.795L44.0555 126.78Z" fill="#A6B5EA"/>
<path d="M53.4152 144.892C53.6262 144.892 53.8372 144.772 53.9427 144.592C54.1085 144.306 54.003 143.961 53.7317 143.796L47.2206 140.191C46.9342 140.026 46.5725 140.131 46.4067 140.417C46.2409 140.702 46.3464 141.047 46.6177 141.213L53.1288 144.817C53.2192 144.862 53.3248 144.892 53.4303 144.892H53.4152Z" fill="#A6B5EA"/>
<path d="M44.5679 139.996C44.7789 139.996 44.99 139.876 45.0955 139.696C45.2612 139.41 45.1557 139.065 44.8844 138.9L39.1571 135.731C38.8707 135.566 38.509 135.671 38.3432 135.956C38.1774 136.242 38.2829 136.587 38.5693 136.752L44.2966 139.921C44.3871 139.966 44.4926 139.996 44.5981 139.996H44.5679Z" fill="#A6B5EA"/>
<path d="M53.4152 148.376C53.6262 148.376 53.8372 148.256 53.9427 148.076C54.1085 147.79 54.003 147.445 53.7317 147.28L39.1571 139.215C38.8707 139.05 38.509 139.155 38.3432 139.44C38.1774 139.726 38.2829 140.071 38.5693 140.236L53.1439 148.301C53.2343 148.346 53.3399 148.376 53.4454 148.376H53.4152Z" fill="#A6B5EA"/>
<path d="M48.351 149.052C48.562 149.052 48.773 148.932 48.8785 148.752C49.0443 148.466 48.9388 148.121 48.6675 147.956L39.1571 142.684C38.8707 142.519 38.509 142.624 38.3432 142.91C38.1774 143.195 38.2829 143.54 38.5693 143.706L48.0797 148.977C48.1701 149.022 48.2757 149.052 48.3812 149.052H48.351Z" fill="#A6B5EA"/>
<path d="M53.4151 151.86C53.6262 151.86 53.8372 151.74 53.9427 151.56C54.1085 151.275 54.003 150.929 53.7317 150.764L51.1996 149.367C50.9132 149.202 50.5515 149.307 50.3857 149.593C50.2199 149.878 50.3254 150.223 50.6118 150.389L53.1438 151.785C53.2343 151.83 53.3398 151.86 53.4453 151.86H53.4151Z" fill="#A6B5EA"/>
<path d="M53.4152 155.329C53.6262 155.329 53.8372 155.209 53.9427 155.029C54.1085 154.744 54.003 154.398 53.7317 154.233L39.1571 146.168C38.8707 146.003 38.509 146.108 38.3432 146.394C38.1774 146.679 38.2829 147.024 38.5693 147.19L53.1439 155.254C53.2343 155.299 53.3399 155.329 53.4454 155.329H53.4152Z" fill="#A6B5EA"/>
<path d="M56.4448 43.0862L6.4961 14.9878C5.56163 14.4472 4.40109 14.4172 3.43648 14.9278L1.49219 16.0241L1.8087 17.2405C1.77856 17.3757 1.76348 17.5259 1.74841 17.661V18.3669C1.74841 21.1301 3.25561 23.6832 5.66714 25.0498L55.6309 53.4785C55.9173 53.6437 56.2187 53.7488 56.5352 53.8239L57.1833 54.4096L58.7809 53.4935C59.7606 52.9529 60.3635 51.9167 60.3635 50.8053V49.7841C60.3635 47.0058 58.8563 44.4528 56.4297 43.0862H56.4448Z" fill="#A6B5EA"/>
<path d="M4.74769 15.979L54.6964 44.0773C57.123 45.4439 58.6302 47.997 58.6302 50.7753V51.7965C58.6 53.5385 57.1682 54.9202 55.4198 54.9052C54.8772 54.9052 54.3346 54.755 53.8674 54.4696L3.91873 26.0409C1.5072 24.6743 0 22.1213 0 19.358V18.6521C0.030144 16.9101 1.46199 15.5284 3.21034 15.5435C3.75293 15.5435 4.28045 15.6936 4.74769 15.964V15.979Z" fill="url(#paint0_linear_5_2)"/>
<path d="M29.9482 35.9526C30.2044 35.9526 30.4305 35.8175 30.5661 35.6072C30.747 35.2768 30.6415 34.8563 30.3099 34.6761L14.2281 25.7555C13.8965 25.5603 13.4594 25.6804 13.2635 26.0108C13.0826 26.3412 13.1881 26.7617 13.5197 26.9419L29.6015 35.8625C29.707 35.9226 29.8276 35.9526 29.9482 35.9526Z" fill="#A6B5EA"/>
<path d="M39.1722 41.0587C39.4285 41.0587 39.6546 40.9235 39.7902 40.7133C39.9711 40.3829 39.8656 39.9624 39.534 39.7822L33.264 36.3131C32.9324 36.1329 32.5104 36.238 32.3145 36.5684C32.1336 36.8988 32.2391 37.3193 32.5707 37.4995L38.8407 40.9686C38.9462 41.0287 39.0667 41.0587 39.1873 41.0587H39.1722Z" fill="#A6B5EA"/>
<path d="M10.7615 25.32C11.0178 25.32 11.2438 25.1849 11.3795 24.9746C11.5604 24.6442 11.4549 24.2237 11.1233 24.0435L4.85331 20.5744C4.52172 20.3942 4.08463 20.4993 3.8887 20.8297C3.70783 21.1601 3.81334 21.5806 4.14492 21.7608L10.4149 25.2299C10.5204 25.29 10.641 25.32 10.7615 25.32Z" fill="#A6B5EA"/>
<path d="M46.4973 44.8131C46.4973 45.579 46.03 45.9094 45.397 45.549C44.7339 45.1135 44.342 44.3776 44.3269 43.5817C44.3269 42.8158 44.7791 42.4553 45.397 42.8007C46.0753 43.2513 46.4822 43.9872 46.4973 44.7981V44.8131Z" fill="#5545D5"/>
<path d="M50.4008 47.1259C50.4008 47.8918 49.9487 48.2222 49.3006 47.8618C48.6374 47.4262 48.2455 46.6904 48.2305 45.8944C48.2305 45.1285 48.6826 44.7681 49.3006 45.1135C49.9788 45.564 50.3858 46.2999 50.4008 47.1109V47.1259Z" fill="#5545D5"/>
<path d="M54.3046 49.2885C54.3046 50.0544 53.8525 50.3848 53.2044 50.0244C52.5412 49.5888 52.1493 48.853 52.1343 48.057C52.1343 47.2911 52.5864 46.9307 53.2044 47.2761C53.8826 47.7266 54.2896 48.4625 54.3046 49.2735V49.2885Z" fill="#5545D5"/>
<path d="M27.2351 46.6603L20.8145 43.1161C19.88 42.5755 18.7194 42.5455 17.7548 43.0561L15.8105 44.1524L16.1271 45.3688C16.0969 45.504 16.0818 45.6542 16.0668 45.7893V54.7399C16.0668 57.5032 17.574 60.0562 19.9855 61.4229L26.4213 65.2975C26.7076 65.4627 27.0091 65.5678 27.3256 65.6429L27.9737 66.2286L29.5713 65.3125C30.551 64.7718 31.1539 63.7356 31.1539 62.6243V53.3433C31.1539 50.565 29.6467 48.0119 27.2201 46.6453L27.2351 46.6603Z" fill="#A6B5EA"/>
<path d="M14.319 46.7805V51.8715C14.5752 52.3971 14.8013 52.9378 14.9821 53.4934C15.0123 53.6136 15.0575 53.7187 15.0876 53.8238C15.1178 53.9139 15.163 54.0491 15.2082 54.1842C15.4343 54.9501 15.7809 56.1215 16.5346 56.1966C17.1073 56.1966 17.5594 55.5358 17.9513 54.9351C18.1171 54.6348 18.3281 54.3644 18.5843 54.1392C18.8858 53.8088 19.3078 53.6136 19.76 53.6286C20.9205 53.7337 21.433 55.4608 21.9755 57.3079L22.0057 57.3981C22.0057 57.3981 22.0057 57.4431 22.0208 57.4731C22.2318 58.239 22.488 58.9899 22.8196 59.7258C23.0306 60.1463 23.3772 60.9272 24.0253 61.0324C24.7639 61.1225 25.3969 60.4016 25.9696 59.7408C26.1656 59.5005 26.3766 59.2753 26.6177 59.08C27.3412 58.4193 28.4113 58.2841 29.2553 58.7647C29.3156 58.8097 29.3608 58.8398 29.4061 58.8848V54.3344C29.4061 52.3671 28.6374 50.4748 27.2658 49.0481C27.2055 48.9881 27.1603 48.943 27.1 48.8829C26.6027 48.4024 26.0601 47.9819 25.4572 47.6365L21.7645 45.594L21.5987 45.5039L19.0365 44.0923C18.1925 43.6117 17.1826 43.5366 16.2783 43.897C16.218 43.912 16.1578 43.9421 16.0975 43.9721C14.9972 44.4677 14.2888 45.564 14.2888 46.7805H14.319Z" fill="url(#paint1_linear_5_2)"/>
<path d="M14.9665 53.4934C15.0117 53.6135 15.0419 53.7187 15.072 53.8238C15.1022 53.9289 15.1474 54.049 15.1926 54.1842C15.4187 54.9501 15.7804 56.1215 16.5189 56.1966C17.0917 56.1966 17.5438 55.5208 17.9357 54.9351C18.1015 54.6347 18.3125 54.3644 18.5687 54.1391C18.8702 53.7937 19.2922 53.6135 19.7443 53.6285C20.9049 53.7337 21.4173 55.4607 21.9599 57.3079L21.9901 57.398C21.9901 57.398 21.9901 57.4431 22.0051 57.4731C22.2011 58.239 22.4724 58.9899 22.804 59.7258C22.9999 60.1463 23.3616 60.9272 24.0097 61.0323C24.7482 61.1224 25.3963 60.3866 25.954 59.7408C26.1499 59.5005 26.361 59.2752 26.6021 59.08C27.3105 58.4042 28.3957 58.2841 29.2397 58.7646C29.3 58.8097 29.3452 58.8397 29.3904 58.8848V63.6004C29.3603 65.3424 27.9284 66.7241 26.1801 66.7091C25.6375 66.7091 25.0949 66.5589 24.6277 66.2735L18.1919 62.3989C15.7804 61.0323 14.2883 58.4793 14.2732 55.716V51.8715C14.5294 52.3971 14.7555 52.9377 14.9364 53.4934H14.9665Z" fill="#5545D5"/>
<path d="M15.8257 49.5438C15.8257 49.8291 15.9764 50.0995 16.2176 50.2496C16.4436 50.3848 16.6094 50.2496 16.6094 49.9793C16.6094 49.724 16.4889 49.4837 16.308 49.3185V43.8971C16.308 43.8971 16.1874 43.9421 16.1271 43.9722V49.2134C15.9463 49.1533 15.8257 49.2885 15.8257 49.5288V49.5438Z" fill="#668EF4"/>
<path d="M26.8132 55.7612C26.8132 56.0466 26.964 56.3169 27.2051 56.4671C27.4312 56.6022 27.612 56.4671 27.612 56.1967C27.612 55.9414 27.4915 55.7162 27.2955 55.551V49.0483C27.2955 49.0483 27.19 48.9431 27.1297 48.8831V55.4458C26.9489 55.3858 26.8132 55.5209 26.8132 55.7612Z" fill="#668EF4"/>
<path d="M21.312 52.6225C21.312 52.9078 21.4627 53.1781 21.7039 53.3283C21.93 53.4635 22.1108 53.3283 22.1108 53.058C22.1108 52.8027 21.9903 52.5774 21.7943 52.4122V45.5941L21.6285 45.504V52.3071C21.4477 52.247 21.312 52.3672 21.312 52.6225Z" fill="#E06FE4"/>
<path d="M42.9855 94.1467L50.7928 103.263L49.0595 104.254L41.2522 95.1379L42.9855 94.1467Z" fill="#DB34BD"/>
<path d="M39.6095 96.1892L37.831 97.0602L35.1934 89.9267L36.9266 88.9355L39.6095 96.1892Z" fill="#DB34BD"/>
<path d="M36.9114 88.9355L35.1781 89.9267L25.321 84.3551L27.0543 83.3639L36.9114 88.9355Z" fill="#DE5BC3"/>
<path d="M23.7166 77.6688L22.0125 78.6622L25.3613 84.3657L27.0655 83.3722L23.7166 77.6688Z" fill="#DB34BD"/>
<path d="M19.051 75.7198L20.7843 74.7286L25.0798 76.9963L23.7234 77.7773L21.9901 78.7684L19.0661 75.7348L19.051 75.7198Z" fill="#DE5BC3"/>
<path d="M19.0511 75.7198L23.3466 77.9725L21.9902 78.7534L25.3361 84.3701L35.1932 89.9417L37.8309 97.0752L41.2522 95.1379L49.0595 104.254V107.272L40.8151 97.6309L36.7909 99.9136L33.5805 91.2783L23.8892 85.7968L20.2719 79.7446L18.9004 80.5256L19.0511 75.7499V75.7198Z" fill="#E06FE4"/>
<path d="M49.0596 107.257L50.7929 106.236V103.247L49.0596 104.239V107.257Z" fill="#DE5BC3"/>
<path d="M122.65 94.3058C127.221 75.2178 115.397 56.0518 96.2398 51.4973C77.0829 46.9429 57.8477 58.7246 53.2768 77.8127C48.7059 96.9007 60.5302 116.067 79.6872 120.621C98.8441 125.176 118.079 113.394 122.65 94.3058Z" fill="#4DEBB3"/>
<path d="M102.475 78.1829L95.0743 82.1626V78.6034C95.0743 77.432 94.1248 76.4858 92.9492 76.4858H74.7572C73.5816 76.4858 72.6321 77.432 72.6321 78.6034V93.5611C72.6321 94.7325 73.5816 95.6786 74.7572 95.6786H92.9492C94.1248 95.6786 95.0743 94.7325 95.0743 93.5611V90.0019L102.475 93.9816C102.851 94.1919 103.319 93.9065 103.319 93.486V78.7085C103.319 78.273 102.851 78.0026 102.475 78.2129V78.1829Z" fill="#1A1A1A"/>
</g>
<defs>
<linearGradient id="paint0_linear_5_2" x1="60.5048" y1="36.0465" x2="1.66637" y2="36.0465" gradientUnits="userSpaceOnUse">
<stop stop-color="#DEE4F8"/>
<stop offset="1" stop-color="#F0F3FC"/>
</linearGradient>
<linearGradient id="paint1_linear_5_2" x1="29.3217" y1="52.0187" x2="14.1622" y2="52.0187" gradientUnits="userSpaceOnUse">
<stop stop-color="#DEE4F8"/>
<stop offset="1" stop-color="#F0F3FC"/>
</linearGradient>
<clipPath id="clip0_5_2">
<rect width="158" height="177" fill="white"/>
</clipPath>
</defs>
</svg>
