<svg width="1920" height="1075" viewBox="0 0 1920 1075" fill="none" xmlns="http://www.w3.org/2000/svg">
<path d="M0 1075H1920V0H0V1075Z" fill="#080F26"/>
<mask id="mask0_3_138" style="mask-type:alpha" maskUnits="userSpaceOnUse" x="0" y="0" width="1920" height="1075">
<path d="M0 1075H1920V0H0V1075Z" fill="#080F26"/>
</mask>
<g mask="url(#mask0_3_138)">
<path d="M1182.97 851.123C713.861 431.703 1060.99 103.324 1447.57 90.6938C2248.15 72.1699 2165.5 522.568 2024.1 750.083C1900.09 923.57 1558.26 1186.66 1182.97 851.123Z" fill="#4DEBB3"/>
<path d="M1414.34 744.337C945.231 324.917 1292.36 -3.46238 1678.94 -16.0923C2479.52 -34.6163 2396.87 415.782 2255.47 643.297C2131.46 816.784 1789.63 1079.87 1414.34 744.337Z" fill="#080F26"/>
<path d="M1667.19 -137.671C1285.4 -137.671 1038.87 160.568 1038.87 469.23C1053.53 1113.81 1716.5 1197.99 1923.72 1149.09C2130.94 1100.18 2011.67 875.702 1843.76 571.048C1675.85 266.395 2048.98 -137.671 1667.19 -137.671Z" fill="#0040E5"/>
</g>
</svg>
