<svg xmlns="http://www.w3.org/2000/svg" width="611.745" height="609.609" viewBox="0 0 611.745 609.609">
  <g id="Line" transform="translate(72.206 266.219)" fill="#080f26" stroke-linecap="round" stroke-linejoin="round" opacity="0.149">
    <path d="M 316.3575744628906 342.3896789550781 C 316.3552551269531 342.3896789550781 316.3531799316406 342.3896789550781 316.3508605957031 342.3896789550781 C 308.5660705566406 342.3894653320312 300.4885559082031 341.8583679199219 292.3427429199219 340.8111572265625 C 284.4688415527344 339.7988586425781 276.3203430175781 338.2773742675781 268.1237487792969 336.2887573242188 C 252.5875549316406 332.5195617675781 236.2983551025391 326.9349670410156 219.7086639404297 319.6899719238281 C 190.2359619140625 306.8187561035156 159.2425537109375 288.5182800292969 127.5894546508789 265.296875 C 113.942253112793 255.2848663330078 100.1231536865234 244.3123626708984 86.51595306396484 232.6841735839844 C 74.30935668945312 222.2527618408203 62.19585800170898 211.2301635742188 50.51205825805664 199.9224700927734 C 40.11015701293945 189.8555755615234 30.1418571472168 179.6572723388672 20.88385581970215 169.6107635498047 C 12.73245620727539 160.7650756835938 5.144256591796875 152.0310668945312 -1.060543537139893 144.3529663085938 C -6.554843425750732 137.5539703369141 -12.00204372406006 129.9984741210938 -17.2508430480957 121.896369934082 C -22.65474319458008 113.5547714233398 -27.84554290771484 104.6363677978516 -32.67914199829102 95.38906860351562 C -37.70724487304688 85.76956939697266 -42.37104415893555 75.749267578125 -46.54104232788086 65.60636901855469 C -50.90904235839844 54.98207092285156 -54.77664184570312 44.12017059326172 -58.03644180297852 33.32257080078125 C -65.11534118652344 9.87416934967041 -69.38944244384766 -13.33263111114502 -70.74004364013672 -35.65323257446289 C -72.23434448242188 -60.3503303527832 -70.11674499511719 -83.80262756347656 -64.446044921875 -105.3584289550781 C -60.80364227294922 -119.2040328979492 -55.63634490966797 -132.4359283447266 -49.08764266967773 -144.6865234375 C -45.67414474487305 -151.0722351074219 -41.81834411621094 -157.3141326904297 -37.62754440307617 -163.2390289306641 C -33.31974411010742 -169.3293304443359 -28.53974342346191 -175.2514343261719 -23.42044258117676 -180.8408355712891 C -18.16134262084961 -186.5829315185547 -12.39934349060059 -192.1319274902344 -6.294443607330322 -197.3338317871094 C -0.02674348093569279 -202.6745300292969 6.775556564331055 -207.7967376708984 13.9234561920166 -212.5584259033203 C 21.25715637207031 -217.4438323974609 29.15795707702637 -222.0849304199219 37.40635681152344 -226.3529357910156 C 45.86315536499023 -230.7288360595703 54.92035675048828 -234.8339233398438 64.32625579833984 -238.5542297363281 C 75.99185943603516 -243.1683349609375 87.85125732421875 -247.238525390625 99.57505798339844 -250.6518249511719 C 110.9691543579102 -253.9691314697266 122.546257019043 -256.7564392089844 133.9847564697266 -258.9364318847656 C 145.0884552001953 -261.0526428222656 156.3638610839844 -262.6541442871094 167.4978637695312 -263.6964416503906 C 178.2921600341797 -264.7069396972656 189.2466583251953 -265.2193298339844 200.0569610595703 -265.2193298339844 C 217.2325592041016 -265.2193298339844 234.6371612548828 -263.9258422851562 251.7872619628906 -261.3746337890625 C 267.9776611328125 -258.9662170410156 284.3419494628906 -255.3776245117188 300.4254455566406 -250.7086334228516 C 315.537353515625 -246.3217315673828 330.7633666992188 -240.8761291503906 345.6806640625 -234.5232238769531 C 359.6207580566406 -228.5865325927734 373.6096496582031 -221.7222290039062 387.258544921875 -214.1210327148438 C 411.7230529785156 -200.4967346191406 435.5900573730469 -184.2679290771484 458.1965637207031 -165.8856353759766 C 468.0834655761719 -157.8461303710938 477.7616577148438 -149.3611297607422 486.9623413085938 -140.6662292480469 C 495.3275756835938 -132.7608642578125 503.3609313964844 -124.6244888305664 510.8403930664062 -116.482063293457 C 511.1550903320312 -116.0885696411133 516.145263671875 -109.7507553100586 521.74365234375 -97.12313079833984 C 525.1243286132812 -89.49762725830078 528.0619506835938 -81.10462951660156 530.4750366210938 -72.17723083496094 C 533.491943359375 -61.01552963256836 535.6927490234375 -48.98223114013672 537.0161743164062 -36.41133117675781 C 540.386474609375 -4.398330688476562 538.1573486328125 31.25076866149902 530.390869140625 69.54557037353516 C 525.7776489257812 92.29247283935547 519.1339721679688 116.2373657226562 510.6442565917969 140.7151641845703 C 506.0803527832031 153.8740692138672 500.8915710449219 167.4479675292969 495.2219543457031 181.0596618652344 C 489.2940673828125 195.2912750244141 482.6760559082031 209.9596710205078 475.5514526367188 224.6573638916016 C 470.3947448730469 235.2956695556641 464.8728637695312 245.3557739257812 459.13916015625 254.5581665039062 C 453.5442504882812 263.5377807617188 447.5942687988281 271.9469604492188 441.4544677734375 279.5523681640625 C 435.46875 286.9667663574219 429.1386413574219 293.8203735351562 422.6398620605469 299.9227600097656 C 416.3097534179688 305.8666687011719 409.6463623046875 311.2606811523438 402.8346557617188 315.9548645019531 C 396.2052612304688 320.5234680175781 389.2539672851562 324.5542602539062 382.1738586425781 327.9352722167969 C 375.2883605957031 331.2233581542969 368.0929565429688 333.9867553710938 360.787353515625 336.1487731933594 C 353.6883544921875 338.2496643066406 346.291748046875 339.8398742675781 338.8032531738281 340.8752746582031 C 331.5354614257812 341.8800659179688 323.9835205078125 342.3896789550781 316.3575744628906 342.3896789550781 Z" stroke="none"/>
    <path d="M 200.0333404541016 -264.219482421875 C 189.2564392089844 -264.219482421875 178.3351135253906 -263.7083740234375 167.5728759765625 -262.7005004882812 C 156.4727783203125 -261.6609497070312 145.2308959960938 -260.0635986328125 134.1595458984375 -257.9530639648438 C 122.7545471191406 -255.7788391113281 111.2105712890625 -252.9988403320312 99.84823608398438 -249.6903686523438 C 88.15667724609375 -246.2860412597656 76.3291015625 -242.2265014648438 64.69412231445312 -237.6244812011719 C 55.3193359375 -233.91650390625 46.29299926757812 -229.8253784179688 37.86587524414062 -225.4649353027344 C 29.64999389648438 -221.2137145996094 21.78109741210938 -216.5913696289062 14.47787475585938 -211.7262573242188 C 7.362548828125 -206.9863891601562 0.592010498046875 -201.8880615234375 -5.6458740234375 -196.5728149414062 C -11.71954345703125 -191.3974914550781 -17.45166015625 -185.8772583007812 -22.68301391601562 -180.1654968261719 C -27.77410888671875 -174.60693359375 -32.52743530273438 -168.7178344726562 -36.81109619140625 -162.6617126464844 C -40.97811889648438 -156.7705993652344 -44.811767578125 -150.5642700195312 -48.20578002929688 -144.2151489257812 C -54.7177734375 -132.0332641601562 -59.8564453125 -118.8743896484375 -63.47897338867188 -105.1040649414062 C -69.12265014648438 -83.65093994140625 -71.22976684570312 -60.30471801757812 -69.74191284179688 -35.71371459960938 C -68.39602661132812 -13.47048950195312 -64.13565063476562 9.659393310546875 -57.0792236328125 33.03350830078125 C -53.82867431640625 43.80039978027344 -49.97198486328125 54.63161468505859 -45.6162109375 65.22617340087891 C -41.457763671875 75.34095001220703 -36.806884765625 85.33339691162109 -31.79287719726562 94.92594909667969 C -26.97378540039062 104.1457290649414 -21.79867553710938 113.0370635986328 -16.41156005859375 121.3527221679688 C -11.1817626953125 129.4256134033203 -5.755340576171875 136.9525146484375 -0.28289794921875 143.7243957519531 C 5.908660888671875 151.3861694335938 13.48220825195312 160.1031799316406 21.61911010742188 168.9332885742188 C 30.86434936523438 178.966064453125 40.8192138671875 189.1507263183594 51.20733642578125 199.2044982910156 C 62.87655639648438 210.4980621337891 74.97454833984375 221.5068359375 87.16555786132812 231.9249572753906 C 100.7539978027344 243.5375061035156 114.5535583496094 254.4946136474609 128.1808776855469 264.4920654296875 C 159.774658203125 287.670166015625 190.7036743164062 305.9337158203125 220.10888671875 318.7751770019531 C 236.6455535888672 325.9969482421875 252.8793334960938 331.5628356933594 268.3594360351562 335.3181762695312 C 276.5205688476562 337.2979431152344 284.632568359375 338.8126220703125 292.4700927734375 339.8199462890625 C 300.5738830566406 340.8616333007812 308.6084594726562 341.3897094726562 316.3507690429688 341.3897094726562 C 323.9334411621094 341.3897094726562 331.4414367675781 340.8831787109375 338.6662292480469 339.8841552734375 C 346.1053466796875 338.8554992675781 353.4524536132812 337.2758178710938 360.5035400390625 335.1891784667969 C 367.7587890625 333.0420532226562 374.90478515625 330.297607421875 381.7428894042969 327.0321655273438 C 388.7755432128906 323.6737060546875 395.6809997558594 319.6694946289062 402.2672119140625 315.1307373046875 C 409.0376586914062 310.4650573730469 415.6616821289062 305.1028442382812 421.955322265625 299.1932983398438 C 428.4207763671875 293.1222839355469 434.7194519042969 286.302734375 440.6763305664062 278.9239501953125 C 446.790771484375 271.3501586914062 452.7170104980469 262.9743957519531 458.2903442382812 254.0292816162109 C 464.0054321289062 244.8568420410156 469.5102233886719 234.8279418945312 474.6516723632812 224.2212829589844 C 481.7594604492188 209.5579528808594 488.362548828125 194.9241638183594 494.2775573730469 180.7261657714844 C 499.934326171875 167.1480560302734 505.1119995117188 153.6078338623047 509.6667785644531 140.4817199707031 C 518.1380004882812 116.0689544677734 524.7701416015625 92.18894958496094 529.3787841796875 69.50473022460938 C 537.1344604492188 31.33084106445312 539.3765869140625 -4.20159912109375 536.0427856445312 -36.1058349609375 C 534.7342529296875 -48.62838745117188 532.5527954101562 -60.61494445800781 529.5592041015625 -71.73260498046875 C 527.1653442382812 -80.623046875 524.2494506835938 -88.98104858398438 520.8927612304688 -96.57449340820312 C 515.408447265625 -108.9812622070312 510.5090637207031 -115.2902526855469 510.0809326171875 -115.8304443359375 C 502.6240844726562 -123.947021484375 494.6151733398438 -132.0579528808594 486.2754516601562 -139.9390563964844 C 477.0928955078125 -148.6164855957031 467.4335632324219 -157.084716796875 457.565673828125 -165.1083984375 C 435.0047912597656 -183.4529418945312 411.1863403320312 -199.6480407714844 386.7720947265625 -213.2438354492188 C 373.1537780761719 -220.8276062011719 359.19677734375 -227.6761474609375 345.2888793945312 -233.5990600585938 C 330.4083251953125 -239.936279296875 315.22021484375 -245.3683776855469 300.1466674804688 -249.744384765625 C 284.1061096191406 -254.4011535644531 267.7861328125 -257.9803771972656 251.6399993896484 -260.3829345703125 C 234.5384521484375 -262.927490234375 217.1833343505859 -264.2183837890625 200.0567779541016 -264.219482421875 L 200.0333404541016 -264.219482421875 M 200.0569458007812 -266.2194519042969 C 342.2788696289062 -266.2098083496094 454.4894714355469 -179.3154907226562 511.59912109375 -117.1341552734375 C 511.59912109375 -117.1341552734375 593.689208984375 -16.76460266113281 476.4513244628906 225.0936126708984 C 434.3945617675781 311.8560791015625 377.0770263671875 343.3897094726562 316.350830078125 343.3897094726562 C 188.4274597167969 343.3897094726562 45.39614868164062 203.4321136474609 -1.83843994140625 144.9815063476562 C -71.49545288085938 58.78395080566406 -141.7420959472656 -158.123046875 63.95843505859375 -239.4842834472656 C 111.6045532226562 -258.3296813964844 157.1836242675781 -266.2223815917969 200.0569458007812 -266.2194519042969 Z" stroke="none" fill="#fff"/>
  </g>
</svg>
