<svg xmlns="http://www.w3.org/2000/svg" xmlns:xlink="http://www.w3.org/1999/xlink" width="201.785" height="59.807" viewBox="0 0 201.785 59.807">
  <defs>
    <linearGradient id="linear-gradient" x1="0.5" y1="1" x2="0.5" gradientUnits="objectBoundingBox">
      <stop offset="0" stop-color="#0090df"/>
      <stop offset="0.906" stop-color="#4debb3"/>
    </linearGradient>
  </defs>
  <g id="Group_409" data-name="Group 409" transform="translate(-938.17 -499.566)">
    <g id="Group_409-2" data-name="Group 409" transform="translate(1022.429 513.235)">
      <path id="Path_3230" data-name="Path 3230" d="M1361.463,594.029v2.68h-5.673V567.316h5.986v9.56a8.79,8.79,0,0,1,6.745-2.949c6.164,0,10.185,5.182,10.185,11.615s-3.931,11.614-10.1,11.614A8.983,8.983,0,0,1,1361.463,594.029Zm11.168-8.487c0-3.484-2.323-6.075-5.539-6.075-3.082,0-5.316,2.591-5.316,6.075,0,3.574,2.278,6.075,5.316,6.075C1370.308,591.617,1372.631,589.071,1372.631,585.542Z" transform="translate(-1355.79 -567.316)" fill="#fff"/>
      <path id="Path_3231" data-name="Path 3231" d="M1480.879,611.7a11.954,11.954,0,1,1,11.927,11.614A11.691,11.691,0,0,1,1480.879,611.7Zm17.779,0a5.856,5.856,0,1,0-5.852,6.075A5.815,5.815,0,0,0,1498.658,611.7Z" transform="translate(-1455.641 -593.472)" fill="#fff"/>
      <path id="Path_3232" data-name="Path 3232" d="M1610.838,611.7a11.691,11.691,0,0,1,11.927-11.615,12.331,12.331,0,0,1,8,2.859l-3.618,4.2a6.133,6.133,0,0,0-4.244-1.519,6.076,6.076,0,0,0,.179,12.15,7.188,7.188,0,0,0,4.869-1.831l3.172,4.467a12.9,12.9,0,0,1-8.353,2.9A11.69,11.69,0,0,1,1610.838,611.7Z" transform="translate(-1559.38 -593.472)" fill="#fff"/>
      <path id="Path_3233" data-name="Path 3233" d="M1715.339,611.7a11.691,11.691,0,0,1,11.927-11.615,12.331,12.331,0,0,1,8,2.859l-3.619,4.2a6.133,6.133,0,0,0-4.244-1.519,6.076,6.076,0,0,0,.178,12.15,7.188,7.188,0,0,0,4.869-1.831l3.172,4.467a12.9,12.9,0,0,1-8.353,2.9A11.691,11.691,0,0,1,1715.339,611.7Z" transform="translate(-1642.796 -593.472)" fill="#fff"/>
      <path id="Path_3234" data-name="Path 3234" d="M1819.841,611.7a11.954,11.954,0,1,1,11.927,11.614A11.691,11.691,0,0,1,1819.841,611.7Zm17.779,0a5.856,5.856,0,1,0-5.852,6.075A5.815,5.815,0,0,0,1837.62,611.7Z" transform="translate(-1726.214 -593.472)" fill="#fff"/>
    </g>
    <g id="Group_410" data-name="Group 410" transform="translate(938.17 499.566)">
      <path id="Path_3235" data-name="Path 3235" d="M962.075,559.373,938.244,545.6l-.052-2.938,9.833-6.158-9.855-6.382.068-2.921,8.99-5.249-9.036-5.658.052-2.938,23.831-13.776,1.7-.009,36.663,20.664.052,2.958-9.912,6.053,9.768,5.768-.005,2.956-36.54,21.4Zm-19.648-15.32,20.5,11.851,33.163-19.425-8.829-5.213-23.434,14.309L962,545.551l-10.812-7a1.8,1.8,0,0,1-.178.128Zm-.053-15.3,20.586,13.332,20.955-12.8-21.11-12.465Zm19.572-15.4,1.737,0,23.549,13.905,8.977-5.481-33.265-18.749L942.427,514.9l8.145,5.1Z" transform="translate(-938.17 -499.566)" fill="url(#linear-gradient)"/>
    </g>
  </g>
</svg>
