<svg id="Full_color_signature" xmlns="http://www.w3.org/2000/svg" xmlns:xlink="http://www.w3.org/1999/xlink" width="267.98" height="51.326" viewBox="0 0 267.98 51.326">
  <defs>
    <linearGradient id="linear-gradient" x1="0.5" y1="1" x2="0.5" gradientUnits="objectBoundingBox">
      <stop offset="0" stop-color="#0090df"/>
      <stop offset="0.91" stop-color="#4debb3"/>
    </linearGradient>
  </defs>
  <path id="Path_3295" data-name="Path 3295" d="M20.514,51.326.063,39.5.02,36.981,8.458,31.7,0,26.218l.06-2.5,7.712-4.507L.02,14.353.063,11.83,20.514,0h1.46L53.441,17.733l.044,2.539-8.505,5.2,8.382,4.947v2.539L22.021,51.322ZM3.654,38.179,21.248,48.351l28.46-16.662L42.13,27.206,22.021,39.5H20.454l-9.279-6.05c-.052.04-.1.075-.155.111ZM3.606,25.048,21.275,36.5l18-10.989L21.156,14.8Zm16.8-13.214h1.488L42.126,23.767l7.7-4.7L21.264,2.975,3.654,13.155l6.99,4.364Z" fill="url(#linear-gradient)"/>
  <path id="Path_3296" data-name="Path 3296" d="M187.152,39.376v2.285H182.28V16.45h5.137v8.2a7.537,7.537,0,0,1,5.788-2.531c5.292,0,8.728,4.447,8.728,9.969s-3.36,9.965-8.656,9.965A7.7,7.7,0,0,1,187.152,39.376Zm9.584-7.284c0-2.991-1.984-5.217-4.761-5.217-2.646,0-4.562,2.226-4.562,5.217,0,3.067,1.956,5.213,4.562,5.213C194.741,37.3,196.736,35.119,196.736,32.092Z" transform="translate(-109.968 -9.924)" fill="#fff"/>
  <path id="Path_3297" data-name="Path 3297" d="M236.88,40.719a10.259,10.259,0,1,1,10.235,9.965A10.039,10.039,0,0,1,236.88,40.719Zm15.257,0a5.03,5.03,0,1,0-10.053,0,5.029,5.029,0,1,0,10.053,0Z" transform="translate(-142.908 -18.551)" fill="#fff"/>
  <path id="Path_3298" data-name="Path 3298" d="M293.61,40.719a10.036,10.036,0,0,1,10.235-9.969,10.572,10.572,0,0,1,6.863,2.456L307.6,36.8a5.264,5.264,0,0,0-3.642-1.305,5,5,0,0,0-5.137,5.217,4.967,4.967,0,0,0,5.288,5.213,6.184,6.184,0,0,0,4.181-1.587l2.721,3.832a11.072,11.072,0,0,1-7.168,2.515A10.028,10.028,0,0,1,293.61,40.719Z" transform="translate(-177.133 -18.551)" fill="#fff"/>
  <path id="Path_3299" data-name="Path 3299" d="M339.22,40.719a10.036,10.036,0,0,1,10.235-9.969,10.564,10.564,0,0,1,6.863,2.456L353.212,36.8a5.26,5.26,0,0,0-3.642-1.305,5,5,0,0,0-5.137,5.217,4.968,4.968,0,0,0,5.292,5.213,6.173,6.173,0,0,0,4.177-1.587l2.721,3.832a11.073,11.073,0,0,1-7.177,2.515A10.029,10.029,0,0,1,339.22,40.719Z" transform="translate(-204.649 -18.551)" fill="#fff"/>
  <path id="Path_3300" data-name="Path 3300" d="M384.83,40.719a10.259,10.259,0,1,1,10.235,9.965A10.039,10.039,0,0,1,384.83,40.719Zm15.257,0a5.02,5.02,0,1,0-10.033,0,5.02,5.02,0,1,0,10.033,0Z" transform="translate(-232.165 -18.551)" fill="#fff"/>
  <path id="Path_3301" data-name="Path 3301" d="M445.339,54.344l.536-.536a7.934,7.934,0,0,0,6.137,2.912c1.722,0,8.01-.881,8.01-9.045V45.22c-.841,3.106-4.328,5.828-8.164,5.828a8.894,8.894,0,1,1,0-17.788c3.832,0,7.323,2.721,8.164,5.828V33.644h.73V47.791c0,8.93-6.978,9.66-8.779,9.66a8.668,8.668,0,0,1-6.629-3.106Zm14.678-12.536c0-3.967-3.757-7.819-8.164-7.819a8.166,8.166,0,0,0,0,16.332,8.138,8.138,0,0,0,8.168-8.513Z" transform="translate(-267.257 -20.065)" fill="#fff"/>
  <path id="Path_3302" data-name="Path 3302" d="M500.7,33.645h.726v4.332a8.145,8.145,0,0,1,7.744-4.717v.73c-4.673,0-7.744,3.3-7.744,7.141V51.8H500.7Z" transform="translate(-302.068 -20.065)" fill="#fff"/>
  <path id="Path_3303" data-name="Path 3303" d="M525.628,42.844a9.393,9.393,0,1,1,9.393,9.394,9.391,9.391,0,0,1-9.393-9.394Zm18.018,0a8.627,8.627,0,1,0-8.624,8.728A8.535,8.535,0,0,0,543.647,42.844Z" transform="translate(-317.107 -20.18)" fill="#fff"/>
  <path id="Path_3304" data-name="Path 3304" d="M582.55,46.076V34.23h.73V46.076c0,4.292,2.182,5.978,5.9,5.978a6.526,6.526,0,0,0,6.629-6.347V34.23h.73V52.387h-.722V48.42a6.93,6.93,0,0,1-6.629,4.332C585.311,52.784,582.55,51.058,582.55,46.076Z" transform="translate(-351.448 -20.651)" fill="#fff"/>
  <path id="Path_3305" data-name="Path 3305" d="M630.77,33.645h.73v5.713a8.747,8.747,0,0,1,8.164-6.1c5.1,0,8.855,4.066,8.855,9.469s-3.773,9.469-8.855,9.469a8.728,8.728,0,0,1-8.164-6.093V57.066h-.73Zm16.983,9.085c0-5.022-3.491-8.728-8.089-8.728-4.487,0-8.164,3.912-8.164,8.728s3.677,8.728,8.164,8.728C644.262,51.469,647.753,47.752,647.753,42.729Z" transform="translate(-380.538 -20.065)" fill="#fff"/>
  <path id="Path_3306" data-name="Path 3306" d="M182.82,100.28h.524v8.486h-.524Z" transform="translate(-110.294 -60.498)" fill="#fff"/>
  <path id="Path_3307" data-name="Path 3307" d="M191.766,100h.48v3.614a2.527,2.527,0,0,1,2.333-1.385,2.081,2.081,0,0,1,2.277,2.38v4.007h-.5v-3.939c0-1.325-.655-1.964-1.884-1.964a2.269,2.269,0,0,0-2.229,2.206V108.6h-.5Z" transform="translate(-115.681 -60.329)" fill="#fff"/>
  <path id="Path_3308" data-name="Path 3308" d="M211.62,105.7h.5v1.424a2.7,2.7,0,0,1,2.579-1.555v.524a2.5,2.5,0,0,0-2.579,2.551v3.313h-.5Z" transform="translate(-127.669 -63.685)" fill="#fff"/>
  <path id="Path_3309" data-name="Path 3309" d="M223.767,108.827a3.119,3.119,0,0,1,3.063-3.257,3.056,3.056,0,0,1,2.987,3.245v.21h-5.526a2.662,2.662,0,0,0,2.642,2.606,2.991,2.991,0,0,0,2.083-.793l.262.365a3.483,3.483,0,0,1-2.345.9,3.174,3.174,0,0,1-3.166-3.281Zm5.554-.206a2.509,2.509,0,1,0-5.014,0Z" transform="translate(-134.996 -63.69)" fill="#fff"/>
  <path id="Path_3310" data-name="Path 3310" d="M254.49,104.364a4.324,4.324,0,1,1,1.266,3.1,4.364,4.364,0,0,1-1.266-3.1Zm8.2,0a3.8,3.8,0,1,0-1.1,2.744A3.824,3.824,0,0,0,262.686,104.364Z" transform="translate(-153.531 -60.329)" fill="#fff"/>
  <path id="Path_3311" data-name="Path 3311" d="M283.2,105.7h.5v1.254a2.535,2.535,0,0,1,2.333-1.385,2.083,2.083,0,0,1,2.277,2.38v4.007h-.5v-3.939c0-1.325-.643-1.964-1.872-1.964a2.285,2.285,0,0,0-2.241,2.226v3.677h-.5Z" transform="translate(-170.852 -63.688)" fill="#fff"/>
  <path id="Path_3312" data-name="Path 3312" d="M303,100h.5v8.616H303Z" transform="translate(-182.797 -60.329)" fill="#fff"/>
  <path id="Path_3313" data-name="Path 3313" d="M311.149,100.837a.4.4,0,0,1,.4-.4.409.409,0,1,1,0,.817.4.4,0,0,1-.4-.42Zm.159,1.769h.5v6.256h-.5Z" transform="translate(-187.713 -60.595)" fill="#fff"/>
  <path id="Path_3314" data-name="Path 3314" d="M320.06,105.7h.5v1.254a2.535,2.535,0,0,1,2.333-1.385,2.083,2.083,0,0,1,2.277,2.38v4.007h-.5v-3.939c0-1.325-.643-1.964-1.872-1.964a2.285,2.285,0,0,0-2.241,2.226v3.677h-.5Z" transform="translate(-193.09 -63.688)" fill="#fff"/>
  <path id="Path_3315" data-name="Path 3315" d="M339.1,108.827a3.121,3.121,0,0,1,3.063-3.257,3.059,3.059,0,0,1,2.987,3.245v.21h-5.514a2.662,2.662,0,0,0,2.646,2.606,3,3,0,0,0,2.083-.793l.262.365a3.5,3.5,0,0,1-2.345.9,3.174,3.174,0,0,1-3.182-3.281Zm5.554-.206a2.509,2.509,0,1,0-5.014,0Z" transform="translate(-204.573 -63.69)" fill="#fff"/>
  <path id="Path_3316" data-name="Path 3316" d="M359.56,113.39h4.6v.472h-4.6Z" transform="translate(-216.92 -68.407)" fill="#fff"/>
  <path id="Path_3317" data-name="Path 3317" d="M373.65,100.28h.536l3.273,6.823c.159.329.421,1.047.421,1.047s.274-.706.428-1.047l3.277-6.823h.547l-4.058,8.553h-.4Z" transform="translate(-225.42 -60.498)" fill="#fff"/>
  <path id="Path_3318" data-name="Path 3318" d="M397.508,108.827a3.121,3.121,0,0,1,3.063-3.257,3.059,3.059,0,0,1,2.987,3.245v.21h-5.514a2.662,2.662,0,0,0,2.646,2.606,3,3,0,0,0,2.083-.793l.262.365a3.5,3.5,0,0,1-2.356.885,3.174,3.174,0,0,1-3.17-3.261Zm5.554-.206a2.509,2.509,0,1,0-5.014,0Z" transform="translate(-239.813 -63.69)" fill="#fff"/>
  <path id="Path_3319" data-name="Path 3319" d="M419.26,105.7h.5v1.424a2.706,2.706,0,0,1,2.579-1.555v.524a2.5,2.5,0,0,0-2.579,2.551v3.313h-.5Z" transform="translate(-252.936 -63.685)" fill="#fff"/>
  <path id="Path_3320" data-name="Path 3320" d="M432.546,108.071v-4.106h-.956v-.436h.956v-1.5l.5-.063v1.559h2.412v.436h-2.412v4.126c0,1.075.432,1.361,1.1,1.361a2.09,2.09,0,0,0,1.19-.4l.194.4a2.44,2.44,0,0,1-1.373.456C433.268,109.916,432.546,109.563,432.546,108.071Z" transform="translate(-260.375 -61.518)" fill="#fff"/>
  <path id="Path_3321" data-name="Path 3321" d="M447.54,105.7h.5v1.424a2.709,2.709,0,0,1,2.579-1.555v.524a2.5,2.5,0,0,0-2.579,2.551v3.313h-.5Z" transform="translate(-269.997 -63.685)" fill="#fff"/>
  <path id="Path_3322" data-name="Path 3322" d="M460.609,100.837a.4.4,0,0,1,.4-.4.409.409,0,1,1,0,.817.4.4,0,0,1-.4-.42Zm.155,1.769h.5v6.256h-.5Z" transform="translate(-277.881 -60.595)" fill="#fff"/>
  <path id="Path_3323" data-name="Path 3323" d="M468.717,108.827a3.122,3.122,0,0,1,3.067-3.257,3.053,3.053,0,0,1,2.983,3.245v.21h-5.542a2.666,2.666,0,0,0,2.646,2.606,3,3,0,0,0,2.083-.793l.262.365a3.491,3.491,0,0,1-2.345.9,3.174,3.174,0,0,1-3.154-3.281Zm5.554-.206a2.509,2.509,0,1,0-5.014,0Z" transform="translate(-282.772 -63.69)" fill="#fff"/>
  <path id="Path_3324" data-name="Path 3324" d="M496.651,105.467a3.1,3.1,0,0,1-3.09,3.261,2.86,2.86,0,0,1-2.594-1.634v1.5h-.5V100h.5v3.8a2.884,2.884,0,0,1,2.594-1.587A3.083,3.083,0,0,1,496.651,105.467Zm-3.13,2.777a2.786,2.786,0,1,0-2.555-2.777A2.653,2.653,0,0,0,493.521,108.244Z" transform="translate(-295.897 -60.329)" fill="#fff"/>
  <path id="Path_3325" data-name="Path 3325" d="M511.69,111.084l.25-.4a2.63,2.63,0,0,0,2.095.9c1.19,0,1.948-.6,1.948-1.321,0-.893-.9-1.115-1.805-1.337-1.127-.262-2.225-.551-2.225-1.7,0-1.035,1.1-1.674,2.107-1.674a2.947,2.947,0,0,1,2,.706l-.234.4a2.623,2.623,0,0,0-1.769-.615c-.849,0-1.587.524-1.587,1.19,0,.837.9,1.035,1.817,1.23,1.1.25,2.214.615,2.214,1.809s-1.15,1.805-2.46,1.805a2.987,2.987,0,0,1-2.352-1Z" transform="translate(-308.698 -63.681)" fill="#fff"/>
  <path id="Path_3326" data-name="Path 3326" d="M529.537,108.827a3.121,3.121,0,0,1,3.063-3.257,3.059,3.059,0,0,1,2.987,3.245v.21h-5.514a2.662,2.662,0,0,0,2.646,2.606,3,3,0,0,0,2.083-.793l.262.365a3.5,3.5,0,0,1-2.344.9,3.174,3.174,0,0,1-3.182-3.281Zm5.554-.206a2.509,2.509,0,1,0-5.014,0Z" transform="translate(-319.464 -63.69)" fill="#fff"/>
  <path id="Path_3327" data-name="Path 3327" d="M551.181,108.951l-2.412-3.051h.615l1.888,2.38c.091.131.234.353.234.353a4,4,0,0,1,.234-.353l1.872-2.38h.6l-2.38,3.051,2.5,3.205h-.6l-1.984-2.487c-.1-.143-.246-.4-.246-.4a4.048,4.048,0,0,1-.238.4l-1.984,2.487h-.615Z" transform="translate(-331.008 -63.889)" fill="#fff"/>
  <path id="Path_3328" data-name="Path 3328" d="M574.331,108.8a3.1,3.1,0,0,1-3.09,3.261,2.856,2.856,0,0,1-2.59-1.634v3.313h-.5v-8.065h.484v1.44a2.9,2.9,0,0,1,2.606-1.587A3.111,3.111,0,0,1,574.331,108.8Zm-3.13,2.777a2.786,2.786,0,1,0-2.551-2.777A2.65,2.65,0,0,0,571.2,111.58Z" transform="translate(-342.76 -63.665)" fill="#fff"/>
  <path id="Path_3329" data-name="Path 3329" d="M589.437,108.827a3.119,3.119,0,0,1,3.063-3.257,3.053,3.053,0,0,1,2.983,3.245v.21h-5.522a2.662,2.662,0,0,0,2.642,2.606,2.991,2.991,0,0,0,2.083-.793l.262.365a3.483,3.483,0,0,1-2.345.9,3.174,3.174,0,0,1-3.166-3.281Zm5.554-.206a2.509,2.509,0,1,0-5.014,0Z" transform="translate(-355.602 -63.69)" fill="#fff"/>
  <path id="Path_3330" data-name="Path 3330" d="M611.18,105.7h.5v1.424a2.7,2.7,0,0,1,2.579-1.555v.524a2.5,2.5,0,0,0-2.579,2.551v3.313h-.5Z" transform="translate(-368.72 -63.685)" fill="#fff"/>
  <path id="Path_3331" data-name="Path 3331" d="M624.546,108.071v-4.106h-.956v-.436h.956v-1.5l.5-.063v1.559h2.408v.436h-2.408v4.126c0,1.075.432,1.361,1.1,1.361a2.075,2.075,0,0,0,1.19-.4l.2.4a2.468,2.468,0,0,1-1.4.464C625.24,109.916,624.546,109.563,624.546,108.071Z" transform="translate(-376.207 -61.518)" fill="#fff"/>
  <path id="Path_3332" data-name="Path 3332" d="M638.237,108.827a3.122,3.122,0,0,1,3.067-3.257,3.053,3.053,0,0,1,2.983,3.245v.21h-5.514a2.666,2.666,0,0,0,2.646,2.606,3,3,0,0,0,2.083-.793l.262.365a3.491,3.491,0,0,1-2.344.9,3.174,3.174,0,0,1-3.182-3.281Zm5.554-.206a2.509,2.509,0,1,0-5.014,0Z" transform="translate(-385.042 -63.69)" fill="#fff"/>
  <path id="Path_3333" data-name="Path 3333" d="M660,105.7h.5v1.254a2.535,2.535,0,0,1,2.332-1.385,2.083,2.083,0,0,1,2.277,2.38v4.007h-.5v-3.939c0-1.325-.643-1.964-1.873-1.964a2.285,2.285,0,0,0-2.241,2.226v3.677H660Z" transform="translate(-398.172 -63.688)" fill="#fff"/>
</svg>
